<?xml version="1.0" encoding="UTF-8"?>
<svg width="23px" height="22px" viewBox="0 0 23 22" version="1.1"
    xmlns="http://www.w3.org/2000/svg"
    xmlns:xlink="http://www.w3.org/1999/xlink">
    <!-- Generator: sketchtool 52.5 (67469) - http://www.bohemiancoding.com/sketch -->
    <title>63446D25-9E05-4B70-9FB2-B5F499150C93</title>
    <desc>Created with sketchtool.</desc>
    <g id="Device-Managment" stroke="none" stroke-width="1" fill="none" fill-rule="evenodd">
        <g id="2_Device_Tiles" transform="translate(-326.000000, -557.000000)" fill="#05146F" fill-rule="nonzero">
            <g id="Group-9-Copy" transform="translate(183.000000, 248.000000)">
                <g id="Group-8" transform="translate(32.000000, 308.000000)">
                    <path d="M124.957143,18.2857143 C124.522643,18.2857143 124.171429,17.9345 124.171429,17.5 L124.171429,8.85714286 C124.171429,8.42264286 124.522643,8.07142857 124.957143,8.07142857 C125.391643,8.07142857 125.742857,8.42264286 125.742857,8.85714286 L125.742857,17.5 C125.742857,17.9345 125.391643,18.2857143 124.957143,18.2857143 Z M120.242857,18.2857143 C119.808357,18.2857143 119.457143,17.9345 119.457143,17.5 L119.457143,8.85714286 C119.457143,8.42264286 119.808357,8.07142857 120.242857,8.07142857 C120.677357,8.07142857 121.028571,8.42264286 121.028571,8.85714286 L121.028571,17.5 C121.028571,17.9345 120.677357,18.2857143 120.242857,18.2857143 Z M132.814286,4.92857143 L128.885714,4.92857143 L128.885714,3.35714286 C128.885714,2.05757143 127.836786,1 126.546643,1 L118.671429,1 C117.371857,1 116.314286,2.05757143 116.314286,3.35714286 L116.314286,4.92857143 L112.385714,4.92857143 C111.951214,4.92857143 111.6,5.27978571 111.6,5.71428571 C111.6,6.14878571 111.951214,6.5 112.385714,6.5 L132.814286,6.5 C133.248786,6.5 133.6,6.14878571 133.6,5.71428571 C133.6,5.27978571 133.248786,4.92857143 132.814286,4.92857143 Z M117.885714,3.35714286 C117.885714,2.92421429 118.2385,2.57142857 118.671429,2.57142857 L126.546643,2.57142857 C126.977214,2.57142857 127.314286,2.91635714 127.314286,3.35714286 L127.314286,4.92857143 L117.885714,4.92857143 L117.885714,3.35714286 Z M128.103143,23 L117.101571,23 C115.802,23 114.744429,21.9424286 114.744429,20.6428571 L114.744429,8.84535714 C114.744429,8.41164286 115.096429,8.05964286 115.530143,8.05964286 C115.963857,8.05964286 116.315857,8.41164286 116.315857,8.84535714 L116.315857,20.6428571 C116.315857,21.0765714 116.668643,21.4285714 117.101571,21.4285714 L128.103143,21.4285714 C128.536857,21.4285714 128.888857,21.0765714 128.888857,20.6428571 L128.888857,8.87757143 C128.888857,8.44385714 129.240071,8.09185714 129.674571,8.09185714 C130.109071,8.09185714 130.460286,8.44385714 130.460286,8.87757143 L130.460286,20.6428571 C130.460286,21.9424286 129.402714,23 128.103143,23 Z" id="Shape-2"></path>
                </g>
            </g>
        </g>
    </g>
</svg>
