<?xml version="1.0" encoding="UTF-8"?>
<svg width="24px" height="24px" viewBox="0 0 24 24" version="1.1"
    xmlns="http://www.w3.org/2000/svg"
    xmlns:xlink="http://www.w3.org/1999/xlink">
    <!-- Generator: sketchtool 52.5 (67469) - http://www.bohemiancoding.com/sketch -->
    <title>6A9CDF6C-5A8A-4EF4-B554-5ADC82110504</title>
    <desc>Created with sketchtool.</desc>
    <g id="Device-Managment" stroke="none" stroke-width="1" fill="none" fill-rule="evenodd">
        <g id="2_Device_Tiles" transform="translate(-270.000000, -556.000000)" fill="#05146F" fill-rule="nonzero" stroke="#05146F">
            <g id="Group-9-Copy" transform="translate(183.000000, 248.000000)">
                <g id="Group-8" transform="translate(32.000000, 308.000000)">
                    <path d="M77.6549048,5.43842685 L73.453086,1.23660809 C73.2594607,1.04298274 72.9464908,1.04298274 72.7528654,1.23660809 L55.9450952,18.0438831 C55.8519966,18.1369817 55.8,18.2622687 55.8,18.3939934 L55.8,22.5958122 C55.8,22.8696608 56.0218521,23.0910177 56.2952055,23.0910177 L60.4970243,23.0910177 C60.6282537,23.0910177 60.7545311,23.0390211 60.8471346,22.9459225 L77.6549048,6.13864744 C77.7480034,6.0455488 77.8,5.9197666 77.8,5.78853714 C77.8,5.65730768 77.7475082,5.53152548 77.6549048,5.43842685 Z M60.291514,22.1011019 L56.7899158,22.1011019 L56.7899158,18.5995037 L70.301103,5.08831655 L73.8027011,8.58991472 L60.291514,22.1011019 Z M74.5034169,7.88969412 L71.0018188,4.38809596 L73.1029757,2.28693898 L76.6045739,5.78853714 L74.5034169,7.88969412 Z" id="Shape-1"></path>
                </g>
            </g>
        </g>
    </g>
</svg>
